<?xml version="1.0" encoding="utf-8"?>
<!-- Generator: Adobe Illustrator 27.0.1, SVG Export Plug-In . SVG Version: 6.00 Build 0)  -->
<svg version="1.1" id="Layer_1" xmlns="http://www.w3.org/2000/svg" xmlns:xlink="http://www.w3.org/1999/xlink" x="0px" y="0px"
	 viewBox="0 0 150 150" style="enable-background:new 0 0 150 150;" xml:space="preserve">
<style type="text/css">
	.st0{fill:none;stroke:#000000;stroke-width:8;stroke-linecap:round;stroke-linejoin:round;}
</style>
<path class="st0" d="M80,26.5c0-8.5-7.4-15.9-17.1-15.9c-8,0-15.4,5.1-16.5,13.1c-9.1,1.7-15.4,9.7-13.7,18.2v0.6
	c-9.1,1.7-15.4,9.7-13.7,18.2c0.6,3.4,2.3,6.3,4.6,8.5c-10.3,4.6-14.8,15.4-9.7,25.1c2.3,4.6,6.8,8.5,12,10.3
	c-2.3,8.5,2.8,17.1,12,19.4c2.8,0.6,5.1,0.6,8,0c1.7,8.5,10.3,14.2,19.9,12.5c6.8-1.1,12-6.3,13.7-12.5H80V26.5z"/>
<path class="st0" d="M106.7,48.7V29.9c0-6.8,6.3-12.5,13.7-12.5"/>
<path class="st0" d="M80,80h26.8"/>
<path class="st0" d="M80,110.8h40.4c7.4,0,13.7,5.7,13.7,12.5v6.3"/>
<path class="st0" d="M80,48.7h54.1"/>
<path class="st0" d="M137.5,48.7c0,1.7-1.7,2.8-3.4,2.8c-1.7,0-3.4-1.1-3.4-2.8c0-1.7,1.7-2.8,3.4-2.8
	C135.8,45.3,137.5,47,137.5,48.7z"/>
<path class="st0" d="M110.2,80c0,1.7-1.7,2.8-3.4,2.8c-1.7,0-3.4-1.1-3.4-2.8s1.7-2.8,3.4-2.8C109,76.6,110.2,78.3,110.2,80z"/>
<path class="st0" d="M137.5,129.6c0,1.7-1.7,2.8-3.4,2.8c-1.7,0-3.4-1.1-3.4-2.8c0-1.7,1.7-2.8,3.4-2.8
	C135.8,126.7,137.5,127.9,137.5,129.6z"/>
<path class="st0" d="M123.8,17.4c0,1.7-1.7,2.8-3.4,2.8c-1.7,0-3.4-1.1-3.4-2.8s1.7-2.8,3.4-2.8C122.1,14,123.8,15.7,123.8,17.4z"/>
</svg>
